<svg xmlns="http://www.w3.org/2000/svg" width="1000" height="650"><rect width="1000" height="650" x="0" y="0" fill="#e2efff" id="backgorund"/><g id="viz"><clipPath id="serieClipPath"><rect x="-50" y="-30" width="1000" height="650"/></clipPath><g transform="translate(0,0)"><g transform="translate(50,30)" clip-path="url(#serieClipPath)"><g id="axis"><g transform="translate(0,590)" fill="none" font-size="10" font-family="sans-serif" text-anchor="middle"><path class="domain" stroke="currentColor" d="M0,6V0H920V6"/><g class="tick" opacity="1" transform="translate(0,0)"><line stroke="currentColor" y2="6"/><text fill="currentColor" y="9" dy="0.71em">2021</text></g><g class="tick" opacity="1" transform="translate(85.38922155688623,0)"><line stroke="currentColor" y2="6"/><text fill="currentColor" y="9" dy="0.71em">February</text></g><g class="tick" opacity="1" transform="translate(162.51497005988026,0)"><line stroke="currentColor" y2="6"/><text fill="currentColor" y="9" dy="0.71em">March</text></g><g class="tick" opacity="1" transform="translate(247.90419161676647,0)"><line stroke="currentColor" y2="6"/><text fill="currentColor" y="9" dy="0.71em">April</text></g><g class="tick" opacity="1" transform="translate(330.5389221556886,0)"><line stroke="currentColor" y2="6"/><text fill="currentColor" y="9" dy="0.71em">May</text></g><g class="tick" opacity="1" transform="translate(415.92814371257487,0)"><line stroke="currentColor" y2="6"/><text fill="currentColor" y="9" dy="0.71em">June</text></g><g class="tick" opacity="1" transform="translate(498.562874251497,0)"><line stroke="currentColor" y2="6"/><text fill="currentColor" y="9" dy="0.71em">July</text></g><g class="tick" opacity="1" transform="translate(583.9520958083832,0)"><line stroke="currentColor" y2="6"/><text fill="currentColor" y="9" dy="0.71em">August</text></g><g class="tick" opacity="1" transform="translate(669.3413173652694,0)"><line stroke="currentColor" y2="6"/><text fill="currentColor" y="9" dy="0.71em">September</text></g><g class="tick" opacity="1" transform="translate(751.9760479041915,0)"><line stroke="currentColor" y2="6"/><text fill="currentColor" y="9" dy="0.71em">October</text></g><g class="tick" opacity="1" transform="translate(837.3652694610778,0)"><line stroke="currentColor" y2="6"/><text fill="currentColor" y="9" dy="0.71em">November</text></g><g class="tick" opacity="1" transform="translate(920,0)"><line stroke="currentColor" y2="6"/><text fill="currentColor" y="9" dy="0.71em">December</text></g><text x="920" dy="-5" text-anchor="end" style="font-family: Arial, sans-serif; font-size: 12px; fill: rgb(123, 123, 123); font-weight: bold;">日期</text></g><g transform="translate(0,0)" fill="none" font-size="10" font-family="sans-serif" text-anchor="end"><path class="domain" stroke="currentColor" d="M0,590V0"/><g class="tick" opacity="1" transform="translate(0,590)"><line stroke="currentColor" x2="-6"/><text fill="currentColor" x="-9" dy="0.32em">120</text></g><g class="tick" opacity="1" transform="translate(0,540.8333333333333)"><line stroke="currentColor" x2="-6"/><text fill="currentColor" x="-9" dy="0.32em">125</text></g><g class="tick" opacity="1" transform="translate(0,491.6666666666667)"><line stroke="currentColor" x2="-6"/><text fill="currentColor" x="-9" dy="0.32em">130</text></g><g class="tick" opacity="1" transform="translate(0,442.5)"><line stroke="currentColor" x2="-6"/><text fill="currentColor" x="-9" dy="0.32em">135</text></g><g class="tick" opacity="1" transform="translate(0,393.33333333333337)"><line stroke="currentColor" x2="-6"/><text fill="currentColor" x="-9" dy="0.32em">140</text></g><g class="tick" opacity="1" transform="translate(0,344.16666666666663)"><line stroke="currentColor" x2="-6"/><text fill="currentColor" x="-9" dy="0.32em">145</text></g><g class="tick" opacity="1" transform="translate(0,295)"><line stroke="currentColor" x2="-6"/><text fill="currentColor" x="-9" dy="0.32em">150</text></g><g class="tick" opacity="1" transform="translate(0,245.83333333333331)"><line stroke="currentColor" x2="-6"/><text fill="currentColor" x="-9" dy="0.32em">155</text></g><g class="tick" opacity="1" transform="translate(0,196.66666666666669)"><line stroke="currentColor" x2="-6"/><text fill="currentColor" x="-9" dy="0.32em">160</text></g><g class="tick" opacity="1" transform="translate(0,147.5)"><line stroke="currentColor" x2="-6"/><text fill="currentColor" x="-9" dy="0.32em">165</text></g><g class="tick" opacity="1" transform="translate(0,98.33333333333331)"><line stroke="currentColor" x2="-6"/><text fill="currentColor" x="-9" dy="0.32em">170</text></g><g class="tick" opacity="1" transform="translate(0,49.166666666666686)"><line stroke="currentColor" x2="-6"/><text fill="currentColor" x="-9" dy="0.32em">175</text></g><g class="tick" opacity="1" transform="translate(0,0)"><line stroke="currentColor" x2="-6"/><text fill="currentColor" x="-9" dy="0.32em">180</text></g><text x="4" text-anchor="start" dominant-baseline="hanging" style="font-family: Arial, sans-serif; font-size: 12px; fill: rgb(123, 123, 123); font-weight: bold;">收市</text></g></g><g id="viz"><g><path d="M0,472.39333333333326C42.69461077844311,472.39333333333326,42.69461077844311,577.6099999999999,85.38922155688623,577.6099999999999C123.95209580838323,577.6099999999999,123.95209580838323,568.8583333333333,162.51497005988026,568.8583333333333C205.20958083832335,568.8583333333333,205.20958083832335,477.3099999999999,247.90419161676647,477.3099999999999C289.2215568862275,477.3099999999999,289.2215568862275,544.6683333333333,330.5389221556886,544.6683333333333C373.23353293413174,544.6683333333333,373.23353293413174,423.2266666666666,415.92814371257487,423.2266666666666C457.245508982036,423.2266666666666,457.245508982036,335.70999999999987,498.562874251497,335.70999999999987C541.2574850299401,335.70999999999987,541.2574850299401,277.0049999999999,583.9520958083832,277.0049999999999C626.6467065868263,277.0049999999999,626.6467065868263,378.5833333333333,669.3413173652694,378.5833333333333C710.6586826347304,378.5833333333333,710.6586826347304,296.9666666666666,751.9760479041915,296.9666666666666C794.6706586826347,296.9666666666666,794.6706586826347,144.54999999999987,837.3652694610778,144.54999999999987C878.6826347305389,144.54999999999987,878.6826347305389,23.895000000000053,920,23.895000000000053" stroke="#2a5774" fill="none"/><text font-family="sans-serif" font-size="10" class="labels" x="920" y="23.895000000000053" dx="0" dy="-4" text-anchor="middle"/></g></g></g><text y="4" x="4" style="font-family: Arial, sans-serif; font-size: 12px; fill: black; font-weight: bold; dominant-baseline: hanging;"/></g><g id="grid"><rect x="0" y="0" width="1000" height="650" fill="none" stroke="#ccc"/></g></g></svg>